<svg xmlns:osb="http://www.openswatchbook.org/uri/2009/osb" xmlns="http://www.w3.org/2000/svg" xmlns:xlink="http://www.w3.org/1999/xlink" width="130" height="130" viewBox="0 0 34.396 34.396"><defs><linearGradient id="a" osb:paint="solid"><stop offset="0" stop-color="#c678c5"/></linearGradient><linearGradient id="c" osb:paint="solid"><stop offset="0" stop-color="#6d6d6d"/></linearGradient><linearGradient id="b" osb:paint="solid"><stop offset="0" stop-color="#f1007e"/></linearGradient><linearGradient xlink:href="#b" id="d" gradientUnits="userSpaceOnUse" x1="3241.684" y1="-1355.433" x2="3254.953" y2="-1355.433"/><linearGradient xlink:href="#c" id="h" gradientUnits="userSpaceOnUse" x1="3225.76" y1="-1355.433" x2="3239.03" y2="-1355.433"/><linearGradient xlink:href="#b" id="f" gradientUnits="userSpaceOnUse" x1="3241.684" y1="-1355.433" x2="3254.953" y2="-1355.433"/><linearGradient xlink:href="#b" id="g" gradientUnits="userSpaceOnUse" x1="3241.684" y1="-1355.433" x2="3254.953" y2="-1355.433"/><linearGradient xlink:href="#b" id="e" gradientUnits="userSpaceOnUse" x1="3241.684" y1="-1355.433" x2="3254.953" y2="-1355.433"/><linearGradient xlink:href="#c" id="i" gradientUnits="userSpaceOnUse" x1="3225.76" y1="-1355.433" x2="3239.03" y2="-1355.433" gradientTransform="matrix(3.70008 0 0 3.70008 -11935.582 4544.663)"/></defs><g transform="matrix(.25 0 0 .25 -594.112 242.482)" fill="url(#e)" fill-rule="evenodd"><path d="M2450.431-937.137l51.962 30v12l-51.962 30v-12l41.57-24-41.57-24z" fill="url(#f)"/><path d="M2450.431-913.137l20.785 12-20.785 12z" fill="url(#g)"/></g><path transform="matrix(.26458 0 0 .26458 2.908 141.698)" d="M49.098-504.566L0-476.221v11.338l39.277-22.676v45.354l9.82 5.67zm-19.639 34.015l-19.64 11.338 19.64 11.338z" fill="url(#i)" fill-rule="evenodd"/></svg>
