<svg xmlns="http://www.w3.org/2000/svg" width="742.753" height="742.753" viewBox="0 0 196.52 196.52"><g color="#000" font-weight="400" font-family="sans-serif"><path style="line-height:normal;font-variant-ligatures:normal;font-variant-position:normal;font-variant-caps:normal;font-variant-numeric:normal;font-variant-alternates:normal;font-feature-settings:normal;text-indent:0;text-align:start;text-decoration-line:none;text-decoration-style:solid;text-decoration-color:#000;text-transform:none;text-orientation:mixed;white-space:normal;shape-padding:0;isolation:auto;mix-blend-mode:normal;solid-color:#000;solid-opacity:1" d="M47.924 72.797a18.228 18.228 0 01-7.796 7.76l42.799 42.965 10.318-5.23zm56.453 56.67l-10.319 5.23 21.686 21.77a18.228 18.228 0 017.798-7.76z" overflow="visible" fill="#a730b8"/><path style="line-height:normal;font-variant-ligatures:normal;font-variant-position:normal;font-variant-caps:normal;font-variant-numeric:normal;font-variant-alternates:normal;font-feature-settings:normal;text-indent:0;text-align:start;text-decoration-line:none;text-decoration-style:solid;text-decoration-color:#000;text-transform:none;text-orientation:mixed;white-space:normal;shape-padding:0;isolation:auto;mix-blend-mode:normal;solid-color:#000;solid-opacity:1" d="M153.894 89.797l-24.23 12.28 1.787 11.427 27.415-13.895a18.228 18.228 0 01-4.972-9.812zm-38.295 19.408l-57.29 29.034a18.228 18.228 0 014.973 9.813l54.103-27.42z" overflow="visible" fill="#5496be"/><path style="line-height:normal;font-variant-ligatures:normal;font-variant-position:normal;font-variant-caps:normal;font-variant-numeric:normal;font-variant-alternates:normal;font-feature-settings:normal;text-indent:0;text-align:start;text-decoration-line:none;text-decoration-style:solid;text-decoration-color:#000;text-transform:none;text-orientation:mixed;white-space:normal;shape-padding:0;isolation:auto;mix-blend-mode:normal;solid-color:#000;solid-opacity:1" d="M97.175 37.687L69.53 91.654l8.162 8.193 29.269-57.138a18.228 18.228 0 01-9.787-5.022zM62.34 105.69L48.34 133.025a18.228 18.228 0 019.786 5.022l12.378-24.164z" overflow="visible" fill="#ce3d1a"/><path style="line-height:normal;font-variant-ligatures:normal;font-variant-position:normal;font-variant-caps:normal;font-variant-numeric:normal;font-variant-alternates:normal;font-feature-settings:normal;text-indent:0;text-align:start;text-decoration-line:none;text-decoration-style:solid;text-decoration-color:#000;text-transform:none;text-orientation:mixed;white-space:normal;shape-padding:0;isolation:auto;mix-blend-mode:normal;solid-color:#000;solid-opacity:1" d="M39.89 80.676a18.228 18.228 0 01-9.105 1.904 18.228 18.228 0 01-1.76-.184l8.176 52.298a18.228 18.228 0 019.106-1.904 18.228 18.228 0 011.759.184z" overflow="visible" fill="#d0188f"/><path style="line-height:normal;font-variant-ligatures:normal;font-variant-position:normal;font-variant-caps:normal;font-variant-numeric:normal;font-variant-alternates:normal;font-feature-settings:normal;text-indent:0;text-align:start;text-decoration-line:none;text-decoration-style:solid;text-decoration-color:#000;text-transform:none;text-orientation:mixed;white-space:normal;shape-padding:0;isolation:auto;mix-blend-mode:normal;solid-color:#000;solid-opacity:1" d="M63.326 148.31a18.228 18.228 0 01.19 3.672 18.228 18.228 0 01-1.922 7.192l52.289 8.39a18.228 18.228 0 01-.191-3.672 18.228 18.228 0 011.923-7.19z" overflow="visible" fill="#5b36e9"/><path style="line-height:normal;font-variant-ligatures:normal;font-variant-position:normal;font-variant-caps:normal;font-variant-numeric:normal;font-variant-alternates:normal;font-feature-settings:normal;text-indent:0;text-align:start;text-decoration-line:none;text-decoration-style:solid;text-decoration-color:#000;text-transform:none;text-orientation:mixed;white-space:normal;shape-padding:0;isolation:auto;mix-blend-mode:normal;solid-color:#000;solid-opacity:1" d="M159.05 99.8l-24.135 47.118a18.228 18.228 0 019.788 5.023l24.134-47.117a18.228 18.228 0 01-9.787-5.023z" overflow="visible" fill="#30b873"/><path style="line-height:normal;font-variant-ligatures:normal;font-variant-position:normal;font-variant-caps:normal;font-variant-numeric:normal;font-variant-alternates:normal;font-feature-settings:normal;text-indent:0;text-align:start;text-decoration-line:none;text-decoration-style:solid;text-decoration-color:#000;text-transform:none;text-orientation:mixed;white-space:normal;shape-padding:0;isolation:auto;mix-blend-mode:normal;solid-color:#000;solid-opacity:1" d="M126.133 33.16a18.228 18.228 0 01-7.798 7.761l37.377 37.52a18.228 18.228 0 017.797-7.76z" overflow="visible" fill="#ebe305"/><path style="line-height:normal;font-variant-ligatures:normal;font-variant-position:normal;font-variant-caps:normal;font-variant-numeric:normal;font-variant-alternates:normal;font-feature-settings:normal;text-indent:0;text-align:start;text-decoration-line:none;text-decoration-style:solid;text-decoration-color:#000;text-transform:none;text-orientation:mixed;white-space:normal;shape-padding:0;isolation:auto;mix-blend-mode:normal;solid-color:#000;solid-opacity:1" d="M92.019 27.684L44.77 51.628a18.228 18.228 0 014.973 9.812L96.99 37.495a18.228 18.228 0 01-4.971-9.811z" overflow="visible" fill="#f47601"/><path style="line-height:normal;font-variant-ligatures:normal;font-variant-position:normal;font-variant-caps:normal;font-variant-numeric:normal;font-variant-alternates:normal;font-feature-settings:normal;text-indent:0;text-align:start;text-decoration-line:none;text-decoration-style:solid;text-decoration-color:#000;text-transform:none;text-orientation:mixed;white-space:normal;shape-padding:0;isolation:auto;mix-blend-mode:normal;solid-color:#000;solid-opacity:1" d="M118.25 40.964a18.228 18.228 0 01-9.257 1.98 18.228 18.228 0 01-1.595-.167l4.185 26.8 11.42 1.832zm-4.234 44.193l9.895 63.363a18.228 18.228 0 018.973-1.837 18.228 18.228 0 011.907.21l-9.355-59.904z" overflow="visible" fill="#57c115"/><path style="line-height:normal;font-variant-ligatures:normal;font-variant-position:normal;font-variant-caps:normal;font-variant-numeric:normal;font-variant-alternates:normal;font-feature-settings:normal;text-indent:0;text-align:start;text-decoration-line:none;text-decoration-style:solid;text-decoration-color:#000;text-transform:none;text-orientation:mixed;white-space:normal;shape-padding:0;isolation:auto;mix-blend-mode:normal;solid-color:#000;solid-opacity:1" d="M49.776 61.641a18.228 18.228 0 01.2 3.73 18.228 18.228 0 01-1.894 7.139l26.82 4.308 5.272-10.295zm45.968 7.382L90.472 79.32l63.371 10.177a18.228 18.228 0 01-.184-3.63 18.228 18.228 0 011.945-7.229z" overflow="visible" fill="#dbb210"/></g><g transform="rotate(3.118 600.365 106.46)" fill-opacity=".996"><circle cx="106.266" cy="51.536" r="16.571" fill="#ffca00"/><circle cx="171.428" cy="110.193" r="16.571" fill="#64ff00"/><circle cx="135.764" cy="190.277" r="16.571" fill="#00a3ff"/><circle cx="48.559" cy="181.114" r="16.571" fill="#9500ff"/><circle cx="30.329" cy="95.367" r="16.571" fill="red"/></g></svg>
