<svg height="500" width="1080">
  
  <marker id="arrow" viewBox="0 0 10 10" refX="5" refY="5" markerWidth="6" markerHeight="6" orient="auto-start-reverse">
    <path d="M 0 0 L 10 5 L 0 10 z"></path>
  </marker>
  
  <rect x="1" y="1" width="478" height="478" class="svgborder"></rect>

  
  <rect x="245" y="5" width="230" height="385" class="svgactor"></rect>
  <text x="340" y="25" class="svgtextsmall">Actor</text>
  <text x="337" y="45" class="svgtextsmaller">Concept</text>
  
  <rect x="250" y="55" width="220" height="75" class="svgborder svgpubactor"></rect>
  <text x="310" y="85" class="svgtextsmall">Actor Inbox</text>
  <text x="280" y="110" class="svgtextsmaller">HTTP POST*, HTTP GET*</text>
  
  <rect x="250" y="140" width="220" height="75" class="svgborder svgpubactor"></rect>
  <text x="305" y="170" class="svgtextsmall">Actor Outbox</text>
  <text x="280" y="195" class="svgtextsmaller">HTTP POST**, HTTP GET</text>
  
  <rect x="250" y="225" width="220" height="75" class="svgborder svgashandler"></rect>
  <text x="335" y="255" class="svgtextsmall">Actor</text>
  <text x="325" y="280" class="svgtextsmaller">HTTP GET</text>
  
  <rect x="250" y="310" width="220" height="75" class="svgborder svgashandler"></rect>
  <text x="265" y="340" class="svgtextsmall">Followers, Liked, etc.</text>
  <text x="325" y="365" class="svgtextsmaller">HTTP GET</text>
  
  <rect x="245" y="400" width="230" height="75" class="svgborder svgashandler"></rect>
  <text x="295" y="430" class="svgtextsmall">Other Content</text>
  <text x="325" y="455" class="svgtextsmaller">HTTP GET</text>
  
  <line x1="125" y1="35" x2="245" y2="35" class="svgdepline"></line>
  <line x1="125" y1="35" x2="125" y2="220" class="svgdepline" marker-end="url(#arrow)"></line>
  <line x1="110" y1="190" x2="110" y2="220" class="svgdepline" marker-end="url(#arrow)"></line>
  <line x1="95" y1="190" x2="95" y2="220" class="svgdepline" marker-end="url(#arrow)"></line>
  <line x1="140" y1="190" x2="140" y2="220" class="svgdepline" marker-end="url(#arrow)"></line>
  <line x1="155" y1="190" x2="155" y2="220" class="svgdepline" marker-end="url(#arrow)"></line>
  <line x1="95" y1="190" x2="155" y2="190" class="svgdepline"></line>

  
  <rect x="70" y="225" width="110" height="75" class="svgborder svgremotepeer"></rect>
  <text x="77" y="255" class="svgtextsmall">Peer Actor</text>
  <text x="87" y="280" class="svgtextsmaller">(Federating)</text>
  
  <line x1="180" y1="257" x2="210" y2="257" class="svgdepline"></line>
  <line x1="210" y1="87" x2="210" y2="432" class="svgdepline"></line>
  <line x1="210" y1="87" x2="245" y2="87" class="svgdepline" marker-end="url(#arrow)"></line>
  <line x1="210" y1="172" x2="245" y2="172" class="svgdepline" marker-end="url(#arrow)"></line>
  <line x1="210" y1="257" x2="245" y2="257" class="svgdepline" marker-end="url(#arrow)"></line>
  <line x1="210" y1="342" x2="245" y2="342" class="svgdepline" marker-end="url(#arrow)"></line>
  <line x1="210" y1="432" x2="240" y2="432" class="svgdepline" marker-end="url(#arrow)"></line>
  
  
  <rect x="1" y="479" width="478" height="20" class="svgborder"></rect>
  <text x="5" y="493" class="svgtextsmaller">*Only S2S</text>
  <text x="120" y="493" class="svgtextsmaller">**Only C2S</text>
  
  
  <rect x="479" y="1" width="599" height="498" class="svgborder"></rect>
  <rect x="500" y="87" width="110" height="350" class="svgborder svgyoublock"></rect>
  <text x="515" y="245" class="svgtextsmall">MyServer</text>
  <text x="520" y="270" class="svgtextsmaller">Map HTTP</text>
  <text x="519" y="290" class="svgtextsmaller">Handlers to</text>
  <text x="519" y="310" class="svgtextsmaller">go-fed calls</text>
  
  <rect x="645" y="87" width="120" height="75" class="svgborder svgpubactor"></rect>
  <text x="662" y="132" class="svgtextsmall">pub.Actor</text>
  <line x1="470" y1="92" x2="485" y2="92" class="svgdepline"></line>
  <line x1="470" y1="177" x2="485" y2="177" class="svgdepline"></line>
  <line x1="485" y1="92" x2="485" y2="177" class="svgdepline"></line>
  <line x1="485" y1="130" x2="500" y2="130" class="svgdepline"></line>
  <line x1="500" y1="130" x2="610" y2="130" class="svgdepline svgyouline"></line>
  <line x1="610" y1="130" x2="640" y2="130" class="svgdepline" marker-end="url(#arrow)"></line>
  
  <rect x="645" y="310" width="120" height="75" class="svgborder svgashandler"></rect>
  <text x="650" y="355" class="svgtextsmaller">pub.HandlerFunc</text>
  <line x1="470" y1="262" x2="485" y2="262" class="svgdepline"></line>
  <line x1="470" y1="347" x2="485" y2="347" class="svgdepline"></line>
  <line x1="475" y1="437" x2="485" y2="437" class="svgdepline"></line>
  <line x1="485" y1="262" x2="485" y2="437" class="svgdepline"></line>
  <line x1="485" y1="347" x2="500" y2="347" class="svgdepline"></line>
  <line x1="500" y1="347" x2="610" y2="347" class="svgdepline svgyouline"></line>
  <line x1="610" y1="347" x2="640" y2="347" class="svgdepline" marker-end="url(#arrow)"></line>
  
  <rect x="790" y="10" width="155" height="60" class="svgborder svginterface"></rect>
  <text x="797" y="45" class="svgtextsmaller">pub.CommonBehavior</text>
  <rect x="790" y="95" width="155" height="60" class="svgborder svginterface"></rect>
  <text x="792" y="130" class="svgtextsmaller">pub.FederatingProtocol*</text>
  <rect x="790" y="180" width="155" height="60" class="svgborder svginterface"></rect>
  <text x="805" y="215" class="svgtextsmaller">pub.SocialProtocol**</text>
  <rect x="790" y="265" width="155" height="60" class="svgborder svginterface"></rect>
  <text x="825" y="300" class="svgtextsmaller">pub.Database</text>
  <rect x="760" y="400" width="155" height="60" class="svgborder svgyoublock"></rect>
  <text x="782" y="435" class="svgtextsmall">MyDatabase</text>
  <rect x="920" y="400" width="155" height="60" class="svgborder svgyoublock"></rect>
  <text x="952" y="435" class="svgtextsmall">MyService</text>
  
  <line x1="777" y1="300" x2="777" y2="45" class="svgdepline"></line>
  <line x1="777" y1="45" x2="785" y2="45" class="svgdepline" marker-end="url(#arrow)"></line>
  <line x1="765" y1="125" x2="785" y2="125" class="svgdepline" marker-end="url(#arrow)"></line>
  <line x1="777" y1="210" x2="785" y2="210" class="svgdepline" marker-end="url(#arrow)"></line>
  <line x1="777" y1="300" x2="785" y2="300" class="svgdepline" marker-end="url(#arrow)"></line>
  
  <line x1="765" y1="347" x2="820" y2="347" class="svgdepline"></line>
  <line x1="820" y1="347" x2="820" y2="330" class="svgdepline" marker-end="url(#arrow)"></line>
  
  <line x1="850" y1="325" x2="850" y2="395" class="svgdepline" marker-end="url(#arrow)"></line>
  
  <line x1="945" y1="45" x2="995" y2="45" class="svgdepline"></line>
  <line x1="945" y1="125" x2="995" y2="125" class="svgdepline"></line>
  <line x1="945" y1="210" x2="995" y2="210" class="svgdepline"></line>
  <line x1="995" y1="45" x2="995" y2="395" class="svgdepline" marker-end="url(#arrow)"></line>
</svg>